<?xml version="1.0" encoding="UTF-8"?>
<svg width="7px" height="7px" viewBox="0 0 7 7" version="1.1" xmlns="http://www.w3.org/2000/svg" xmlns:xlink="http://www.w3.org/1999/xlink">
    <!-- Generator: Sketch 46.1 (44463) - http://www.bohemiancoding.com/sketch -->
    <title>remove2</title>
    <desc>Created with Sketch.</desc>
    <defs></defs>
    <g id="Page-2" stroke="none" stroke-width="1" fill="none" fill-rule="evenodd">
        <g id="remove2" fill="#B2B2B2">
            <path d="M6.87170112,0.746910205 C7.04276629,0.576287871 7.04276629,0.299354698 6.87170112,0.12829487 C6.70107345,-0.0427649568 6.42413163,-0.0427649568 6.25306645,0.12829487 L3.49983593,2.88143935 L0.747042923,0.12829487 C0.57597775,-0.0427649568 0.299035922,-0.0427649568 0.12797075,0.12829487 C-0.0426569165,0.299354698 -0.0426569165,0.576287871 0.12797075,0.746910205 L2.88120127,3.50005469 L0.12797075,6.25319917 C-0.0426569165,6.424259 -0.0426569165,6.70119217 0.12797075,6.8718145 C0.213722089,6.95756316 0.325286333,7 0.437288083,7 C0.549289833,7 0.661291583,6.95756316 0.747042923,6.8718145 L3.49983593,4.11867002 L6.25306645,6.8718145 C6.33838029,6.95756316 6.45038204,7 6.56238379,7 C6.67438554,7 6.78638729,6.95756316 6.87170112,6.8718145 C7.04276629,6.70119217 7.04276629,6.424259 6.87170112,6.25319917 L4.11890811,3.50005469 L6.87170112,0.746910205 Z" id="Imported-Layers"></path>
        </g>
    </g>
</svg>