<svg xmlns="http://www.w3.org/2000/svg" width="16" height="16" viewBox="0 0 16 16">
  <path d="M6.996094,1.5 C6.175781,1.5 5.5,2.175781 5.5,2.996094 L5.5,3.5 L2.5,3.5 L2.5,4.5 L3.5,4.5 L3.5,13 C3.5,13.824219 4.175781,14.5 5,14.5 L11,14.5 C11.824219,14.5 12.5,13.824219 12.5,13 L12.5,4.5 L13.5,4.5 L13.5,3.5 L10.5,3.5 L10.5,2.996094 C10.5,2.175781 9.824219,1.5 9.003906,1.5 L6.996094,1.5 Z M6.996094,2.5 L9.003906,2.5 C9.285156,2.5 9.5,2.714844 9.5,2.996094 L9.5,3.5 L6.5,3.5 L6.5,2.996094 C6.5,2.714844 6.714844,2.5 6.996094,2.5 Z M4.5,4.5 L11.5,4.5 L11.5,13 C11.5,13.28125 11.28125,13.5 11,13.5 L5,13.5 C4.71875,13.5 4.5,13.28125 4.5,13 L4.5,4.5 Z M5.5,5.5 L5.5,12.5 L6.5,12.5 L6.5,5.5 L5.5,5.5 Z M7.5,5.5 L7.5,12.5 L8.5,12.5 L8.5,5.5 L7.5,5.5 Z M9.5,5.5 L9.5,12.5 L10.5,12.5 L10.5,5.5 L9.5,5.5 Z"/>
</svg>
