<svg width="13" height="18" viewBox="0 0 13 18" fill="none" xmlns="http://www.w3.org/2000/svg">
<path d="M2.73157 6.7538H10.2688V5.01962H7.9576C8.42767 4.69376 8.78456 4.219 8.9755 3.66556C9.16644 3.11211 9.18129 2.50936 9.01786 1.94644C8.85442 1.38352 8.52137 0.890328 8.06797 0.539795C7.61456 0.189261 7.06487 0 6.5002 0C5.93552 0 5.38583 0.189261 4.93243 0.539795C4.47902 0.890328 4.14597 1.38352 3.98253 1.94644C3.8191 2.50936 3.83395 3.11211 4.02489 3.66556C4.21583 4.219 4.57272 4.69376 5.04279 5.01962H2.73157V6.7538ZM6.5002 1.74887C6.6888 1.74921 6.87306 1.80779 7.0297 1.9172C7.18633 2.0266 7.3083 2.18193 7.38018 2.36352C7.45205 2.54512 7.47061 2.74483 7.43351 2.93741C7.3964 3.12999 7.30529 3.30679 7.17171 3.44545C7.03813 3.5841 6.86806 3.67839 6.68303 3.7164C6.49799 3.7544 6.30629 3.7344 6.13216 3.65894C5.95804 3.58347 5.80931 3.45593 5.70478 3.29244C5.60025 3.12894 5.54462 2.93684 5.54493 2.74042C5.54587 2.47717 5.64692 2.22504 5.82595 2.0392C6.00499 1.85337 6.24743 1.74898 6.5002 1.74887Z" fill="#96A2AA"/>
<path d="M1.60377 3.57939H1.81202C1.98124 3.57906 2.1434 3.50873 2.26283 3.38388C2.38226 3.25903 2.44917 3.08988 2.44885 2.91364C2.44853 2.73741 2.381 2.56853 2.26112 2.44415C2.14123 2.31977 1.97882 2.25008 1.8096 2.25042H1.80692H1.60134C1.1767 2.25084 0.769569 2.42674 0.469336 2.73949C0.169102 3.05225 0.000304066 3.4763 0 3.91855L0 16.3323C0.000169096 16.7745 0.168936 17.1986 0.46921 17.5113C0.769484 17.824 1.17669 17.9998 1.60134 18H1.60377L11.3999 17.998C11.8243 17.9973 12.2311 17.8213 12.5311 17.5087C12.831 17.196 12.9997 16.7722 13 16.3303L12.9987 3.91523C12.9981 3.47281 12.8289 3.04872 12.5283 2.73615C12.2276 2.42359 11.8201 2.24811 11.3953 2.24829H11.1898C11.0205 2.24863 10.8584 2.31896 10.739 2.44381C10.6195 2.56866 10.5526 2.73781 10.5529 2.91404C10.5533 3.09028 10.6208 3.25916 10.7407 3.38354C10.8606 3.50792 11.023 3.5776 11.1922 3.57727H11.1947H11.3978C11.4839 3.57727 11.5665 3.61285 11.6275 3.67621C11.6885 3.73956 11.7228 3.82552 11.723 3.91523L11.7243 16.3303C11.7243 16.4199 11.6902 16.5058 11.6295 16.5693C11.5688 16.6328 11.4864 16.6687 11.4003 16.669L1.60173 16.671C1.5155 16.6708 1.43286 16.635 1.37185 16.5715C1.31084 16.5081 1.27641 16.4221 1.27607 16.3323V3.91855C1.27612 3.87385 1.28465 3.82959 1.30116 3.78833C1.31767 3.74707 1.34184 3.7096 1.37229 3.67809C1.40274 3.64658 1.43886 3.62164 1.47858 3.60471C1.5183 3.58777 1.56085 3.57917 1.60377 3.57939Z" fill="#96A2AA"/>
</svg>
