<svg width="17" height="12" viewBox="0 0 17 12" fill="none" xmlns="http://www.w3.org/2000/svg">
<path d="M11.4547 11.7717C11.2151 12.0113 10.8378 12.0113 10.5981 11.7717C10.3665 11.5401 10.3665 11.1547 10.5981 10.9237L14.9418 6.58001L0.608298 6.58001C0.27417 6.58001 -3.95615e-05 6.31444 -3.95323e-05 5.98031C-3.95031e-05 5.64618 0.27417 5.37197 0.608298 5.37197L14.9418 5.37197L10.5981 1.03642C10.3665 0.796753 10.3665 0.410808 10.5981 0.179779C10.8378 -0.0598856 11.2151 -0.0598855 11.4547 0.17978L16.8267 5.55172C17.0583 5.78329 17.0583 6.1687 16.8267 6.39972L11.4547 11.7717Z" fill="#1E201D"/>
</svg>
