<svg width="32" height="32" viewBox="0 0 32 32" fill="none" xmlns="http://www.w3.org/2000/svg">
<circle cx="16" cy="16" r="16" fill="#4BB4FF"/>
<path d="M10.7064 15.432L10.3384 16.712H13.0104L12.6424 15.432C12.4717 14.8773 12.3064 14.3067 12.1464 13.72C11.997 13.1333 11.8477 12.552 11.6984 11.976H11.6344C11.485 12.5627 11.3357 13.1493 11.1864 13.736C11.037 14.312 10.877 14.8773 10.7064 15.432ZM7.20237 21L10.6104 10.536H12.7864L16.1944 21H14.2424L13.4264 18.168H9.90638L9.09038 21H7.20237ZM17.4843 21V10.536H23.7883V12.104H19.3403V14.776H23.1003V16.344H19.3403V19.432H23.9483V21H17.4843Z" fill="white"/>
</svg>
