<svg width="13" height="17" viewBox="0 0 13 17" fill="none" xmlns="http://www.w3.org/2000/svg">
<path d="M11.2008 2.44925H8.74922C8.62692 1.38876 7.72464 0.562256 6.63186 0.562256C5.53912 0.562256 4.63697 1.38873 4.51467 2.44925H2.06291C1.07075 2.44925 0.263672 3.25656 0.263672 4.24868V4.34101C0.263672 5.09918 0.735755 5.74812 1.40078 6.01253V14.5129C1.40078 15.5051 2.20796 16.3124 3.20005 16.3124H10.0637C11.0559 16.3124 11.863 15.505 11.863 14.5129V6.01256C12.528 5.74812 13.0001 5.09918 13.0001 4.34104V4.24871C13.0001 3.25656 12.1929 2.44925 11.2008 2.44925ZM6.63186 1.41563C7.25337 1.41563 7.77214 1.8611 7.88693 2.44925H5.37702C5.49178 1.86107 6.01058 1.41563 6.63186 1.41563ZM11.0096 14.5129C11.0096 15.0346 10.5852 15.459 10.0637 15.459H3.20002C2.67854 15.459 2.25413 15.0345 2.25413 14.5129V6.14044H11.0096V14.5129ZM12.1467 4.34101C12.1467 4.86265 11.7223 5.2871 11.2008 5.2871H2.06291C1.54143 5.2871 1.11701 4.86265 1.11701 4.34101V4.24868C1.11701 3.72704 1.54143 3.30259 2.06291 3.30259H11.2008C11.7223 3.30259 12.1467 3.72704 12.1467 4.24868V4.34101H12.1467Z" fill="#C8D1D8"/>
<path d="M4.34464 14.3682C4.58029 14.3682 4.77131 14.1772 4.77131 13.9416V9.1374C4.77131 8.90181 4.58026 8.71069 4.34464 8.71069C4.10902 8.71069 3.91797 8.90181 3.91797 9.1374V13.9416C3.91794 14.1772 4.10899 14.3682 4.34464 14.3682Z" fill="#C8D1D8"/>
<path d="M6.63175 14.3682C6.8674 14.3682 7.05845 14.1772 7.05845 13.9416V9.1374C7.05845 8.90181 6.86733 8.71069 6.63175 8.71069C6.39613 8.71069 6.20508 8.90181 6.20508 9.1374V13.9416C6.20508 14.1772 6.3961 14.3682 6.63175 14.3682Z" fill="#C8D1D8"/>
<path d="M8.91889 14.3682C9.15451 14.3682 9.34553 14.1772 9.34553 13.9416V9.1374C9.34553 8.90181 9.15448 8.71069 8.91889 8.71069C8.68321 8.71069 8.49219 8.90181 8.49219 9.1374V13.9416C8.49215 14.1772 8.68327 14.3682 8.91889 14.3682Z" fill="#C8D1D8"/>
</svg>
