<svg width="16" height="19" viewBox="0 0 16 19" fill="none" xmlns="http://www.w3.org/2000/svg">
<path d="M13.1073 2.26141H10.1693C10.0227 0.9905 8.94138 0 7.63177 0C6.32221 0 5.24105 0.990461 5.09449 2.26141H2.15624C0.967221 2.26141 0 3.22891 0 4.41789V4.52854C0 5.43715 0.565754 6.21485 1.36274 6.53172V16.7188C1.36274 17.9078 2.33008 18.8753 3.51902 18.8753H11.7446C12.9336 18.8753 13.9008 17.9077 13.9008 16.7188V6.53176C14.6978 6.21485 15.2636 5.43715 15.2636 4.52858V4.41793C15.2636 3.22891 14.2963 2.26141 13.1073 2.26141ZM7.63177 1.0227C8.37661 1.0227 8.99831 1.55657 9.13588 2.26141H6.12795C6.26547 1.55653 6.88722 1.0227 7.63177 1.0227ZM12.8781 16.7188C12.8781 17.3439 12.3695 17.8526 11.7446 17.8526H3.51898C2.89403 17.8526 2.3854 17.3439 2.3854 16.7188V6.68502H12.8781V16.7188ZM14.2409 4.52854C14.2409 5.15369 13.7323 5.66236 13.1073 5.66236H2.15624C1.53129 5.66236 1.02266 5.15369 1.02266 4.52854V4.41789C1.02266 3.79274 1.53129 3.28407 2.15624 3.28407H13.1073C13.7323 3.28407 14.2409 3.79274 14.2409 4.41789V4.52854H14.2409Z" fill="#778690"/>
<path d="M4.89024 16.5448C5.17264 16.5448 5.40157 16.3158 5.40157 16.0335V10.276C5.40157 9.99369 5.17261 9.76465 4.89024 9.76465C4.60787 9.76465 4.37891 9.99369 4.37891 10.276V16.0335C4.37887 16.3159 4.60783 16.5448 4.89024 16.5448Z" fill="#778690"/>
<path d="M7.63145 16.5448C7.91386 16.5448 8.14282 16.3158 8.14282 16.0335V10.276C8.14282 9.99369 7.91378 9.76465 7.63145 9.76465C7.34908 9.76465 7.12012 9.99369 7.12012 10.276V16.0335C7.12012 16.3159 7.34904 16.5448 7.63145 16.5448Z" fill="#778690"/>
<path d="M10.3737 16.5448C10.656 16.5448 10.885 16.3158 10.885 16.0335V10.276C10.885 9.99369 10.656 9.76465 10.3737 9.76465C10.0912 9.76465 9.8623 9.99369 9.8623 10.276V16.0335C9.86227 16.3159 10.0913 16.5448 10.3737 16.5448Z" fill="#778690"/>
</svg>
