<svg width="47" height="52" viewBox="0 0 47 52" fill="none" xmlns="http://www.w3.org/2000/svg">
<g filter="url(#filter0_d)">
<circle cx="21" cy="26" r="16" fill="white"/>
<circle cx="21" cy="26" r="15" stroke="#DAE1E6" stroke-width="2"/>
</g>
<path d="M21.5 19.6364C17.1818 19.6364 13.4682 22.3136 12 26.1136C13.4682 29.9136 17.1818 32.5909 21.5 32.5909C25.8182 32.5909 29.5318 29.9136 31 26.1136C29.5318 22.3136 25.8182 19.6364 21.5 19.6364ZM21.5 30.4318C19.0818 30.4318 17.1818 28.5318 17.1818 26.1136C17.1818 23.6955 19.0818 21.7954 21.5 21.7954C23.9182 21.7954 25.8182 23.6955 25.8182 26.1136C25.8182 28.5318 23.9182 30.4318 21.5 30.4318ZM21.5 23.5227C20.0318 23.5227 18.9091 24.6455 18.9091 26.1136C18.9091 27.5818 20.0318 28.7046 21.5 28.7046C22.9682 28.7046 24.0909 27.5818 24.0909 26.1136C24.0909 24.6455 22.9682 23.5227 21.5 23.5227Z" fill="black"/>
<defs>
<filter id="filter0_d" x="-5" y="0" width="52" height="52" filterUnits="userSpaceOnUse" color-interpolation-filters="sRGB">
<feFlood flood-opacity="0" result="BackgroundImageFix"/>
<feColorMatrix in="SourceAlpha" type="matrix" values="0 0 0 0 0 0 0 0 0 0 0 0 0 0 0 0 0 0 127 0"/>
<feOffset/>
<feGaussianBlur stdDeviation="5"/>
<feColorMatrix type="matrix" values="0 0 0 0 0 0 0 0 0 0 0 0 0 0 0 0 0 0 0.1 0"/>
<feBlend mode="normal" in2="BackgroundImageFix" result="effect1_dropShadow"/>
<feBlend mode="normal" in="SourceGraphic" in2="effect1_dropShadow" result="shape"/>
</filter>
</defs>
</svg>
