<svg width="14" height="14" viewBox="0 0 14 14" fill="none" xmlns="http://www.w3.org/2000/svg">
<path fill-rule="evenodd" clip-rule="evenodd" d="M6.97978 3.02024C7.17504 2.82498 7.49162 2.82498 7.68689 3.02024L10.3131 5.64647C10.5084 5.84173 10.5084 6.15831 10.3131 6.35357L4.1133 12.5534C4.03961 12.6271 3.94474 12.6759 3.84195 12.693L0.690476 13.2183C0.352065 13.2747 0.0586775 12.9813 0.115079 12.6429L0.640325 9.49141C0.657457 9.38861 0.70628 9.29374 0.779968 9.22005L6.97978 3.02024Z" fill="white"/>
<path fill-rule="evenodd" clip-rule="evenodd" d="M9.64645 0.353553C9.84171 0.158291 10.1583 0.158291 10.3536 0.353553L12.9798 2.97978C13.175 3.17504 13.175 3.49162 12.9798 3.68689L11.6869 4.97978C11.4916 5.17504 11.175 5.17504 10.9798 4.97978L8.35355 2.35355C8.15829 2.15829 8.15829 1.84171 8.35355 1.64645L9.64645 0.353553Z" fill="white"/>
</svg>
