<svg width="172" height="128" viewBox="0 0 172 128" fill="none" xmlns="http://www.w3.org/2000/svg">
<path d="M166 2H6.12219C3.91305 2 2.12219 3.79086 2.12219 6V122C2.12219 124.209 3.91305 126 6.12219 126H166C168.209 126 170 124.209 170 122V6C170 3.79086 168.209 2 166 2Z" fill="#F2F6F8"/>
<path d="M166.681 2.94922H5.23536C4.16763 2.94922 3.30573 3.79697 3.30573 4.84718V11.6023C3.30573 13.8114 5.09659 15.6023 7.30573 15.6023H164.611C166.82 15.6023 168.611 13.8114 168.611 11.6023V4.84718C168.611 3.79697 167.749 2.94922 166.681 2.94922Z" fill="white"/>
<path opacity="0.44" fill-rule="evenodd" clip-rule="evenodd" d="M79.5332 123.085C78.9487 124.648 77.4553 125.684 75.7866 125.684H6C3.79086 125.684 2 123.893 2 121.684V19.6021C2 17.3929 3.79086 15.6021 6 15.6021H113.96C116.752 15.6021 118.685 18.3887 117.707 21.0031L79.5332 123.085Z" fill="white"/>
<path d="M3.40863 15.2856H168.714" stroke="#DAE1E6" stroke-width="2" stroke-miterlimit="10"/>
<path d="M11.185 10.541C12.2507 10.541 13.1147 9.69129 13.1147 8.64308C13.1147 7.59486 12.2507 6.74512 11.185 6.74512C10.1193 6.74512 9.2554 7.59486 9.2554 8.64308C9.2554 9.69129 10.1193 10.541 11.185 10.541Z" fill="white" stroke="#DAE1E6" stroke-width="2" stroke-miterlimit="10"/>
<path d="M18.2603 10.541C19.326 10.541 20.1899 9.69129 20.1899 8.64308C20.1899 7.59486 19.326 6.74512 18.2603 6.74512C17.1946 6.74512 16.3307 7.59486 16.3307 8.64308C16.3307 9.69129 17.1946 10.541 18.2603 10.541Z" fill="white" stroke="#DAE1E6" stroke-width="2" stroke-miterlimit="10"/>
<path d="M25.3357 10.541C26.4014 10.541 27.2653 9.69129 27.2653 8.64308C27.2653 7.59486 26.4014 6.74512 25.3357 6.74512C24.27 6.74512 23.406 7.59486 23.406 8.64308C23.406 9.69129 24.27 10.541 25.3357 10.541Z" fill="white" stroke="#DAE1E6" stroke-width="2" stroke-miterlimit="10"/>
<path d="M166 2H6.12219C3.91305 2 2.12219 3.79086 2.12219 6V122C2.12219 124.209 3.91305 126 6.12219 126H166C168.209 126 170 124.209 170 122V6C170 3.79086 168.209 2 166 2Z" stroke="#DAE1E6" stroke-width="3" stroke-miterlimit="10"/>
</svg>
