<svg width="24" height="24" viewBox="0 0 24 24" fill="none" xmlns="http://www.w3.org/2000/svg">
<path fill-rule="evenodd" clip-rule="evenodd" d="M0 12C0 5.376 5.376 0 12 0C18.624 0 24 5.376 24 12C24 18.624 18.624 24 12 24C5.376 24 0 18.624 0 12ZM14.9286 10H15.5C16.1286 10 16.6429 10.5143 16.6429 11.1429V16.8571C16.6429 17.4857 16.1286 18 15.5 18H8.64286C8.01429 18 7.5 17.4857 7.5 16.8571V11.1429C7.5 10.5143 8.01429 10 8.64286 10H9.21429V8.85714C9.21429 7.28 10.4943 6 12.0714 6C13.6486 6 14.9286 7.28 14.9286 8.85714V10ZM10.9286 14C10.9286 14.6286 11.4429 15.1429 12.0714 15.1429C12.7 15.1429 13.2143 14.6286 13.2143 14C13.2143 13.3714 12.7 12.8571 12.0714 12.8571C11.4429 12.8571 10.9286 13.3714 10.9286 14ZM10.3 8.85714V10H13.8429V8.85714C13.8429 7.88 13.0486 7.08571 12.0714 7.08571C11.0943 7.08571 10.3 7.88 10.3 8.85714Z" fill="#3EBF79"/>
</svg>
