<svg width="19" height="20" viewBox="0 0 19 20" fill="none" xmlns="http://www.w3.org/2000/svg">
<path d="M1.66667 13.1667C1.11439 13.1667 0.666672 13.6144 0.666672 14.1667C0.666672 14.7189 1.11439 15.1667 1.66667 15.1667V13.1667ZM4.16667 7.49999L3.16667 7.49999V7.49999H4.16667ZM15.8333 7.49999L16.8333 7.49999V7.49999L15.8333 7.49999ZM11.4417 17.5L12.3067 18.0018C12.4861 17.6924 12.4867 17.3108 12.3082 17.0009C12.1297 16.691 11.7993 16.5 11.4417 16.5V17.5ZM8.55834 17.5V16.5C8.2007 16.5 7.8703 16.691 7.6918 17.0009C7.5133 17.3108 7.51389 17.6924 7.69334 18.0018L8.55834 17.5ZM18.3333 13.1667H1.66667V15.1667H18.3333V13.1667ZM1.66667 15.1667C3.59967 15.1667 5.16667 13.5997 5.16667 11.6667H3.16667C3.16667 12.4951 2.4951 13.1667 1.66667 13.1667V15.1667ZM5.16667 11.6667V7.49999H3.16667V11.6667H5.16667ZM5.16667 7.49999C5.16667 4.83061 7.33063 2.66666 10 2.66666V0.666656C6.22606 0.666656 3.16667 3.72604 3.16667 7.49999L5.16667 7.49999ZM10 2.66666C12.6694 2.66666 14.8333 4.83061 14.8333 7.49999L16.8333 7.49999C16.8333 3.72604 13.774 0.666656 10 0.666656V2.66666ZM14.8333 7.49999V11.6667H16.8333V7.49999H14.8333ZM14.8333 11.6667C14.8333 13.5997 16.4003 15.1667 18.3333 15.1667V13.1667C17.5049 13.1667 16.8333 12.4951 16.8333 11.6667H14.8333ZM10.5767 16.9982C10.4574 17.2038 10.2377 17.3304 10 17.3304V19.3304C10.9508 19.3304 11.8296 18.8242 12.3067 18.0018L10.5767 16.9982ZM10 17.3304C9.76231 17.3304 9.5426 17.2038 9.42334 16.9982L7.69334 18.0018C8.1704 18.8242 9.04924 19.3304 10 19.3304V17.3304ZM8.55834 18.5H11.4417V16.5H8.55834V18.5Z" fill="white"/>
</svg>
