<svg width="18" height="23" viewBox="0 0 18 23" fill="none" xmlns="http://www.w3.org/2000/svg">
<path d="M16.3487 1.33506H14.7214C14.541 1.33506 14.3947 1.48137 14.3947 1.6617C14.3947 1.84213 14.541 1.98835 14.7214 1.98835H14.9233V20.0259H2.72836V1.98835H4.08791V2.73038C4.08791 3.29923 4.55058 3.76189 5.11942 3.76189H6.66377C6.81819 4.61428 7.56589 5.26261 8.46182 5.26261H9.18963C10.0855 5.26261 10.8332 4.61428 10.9876 3.76189H12.5319C13.1009 3.76189 13.5637 3.29914 13.5637 2.73038V1.32066C13.5637 0.751816 13.1009 0.289062 12.532 0.289062H5.11942C4.55058 0.289062 4.08791 0.751816 4.08791 1.32066V1.33506H1.30276C0.584374 1.33506 0 1.9196 0 2.63773V15.751C0 15.9315 0.146224 16.0776 0.326649 16.0776C0.5069 16.0776 0.653298 15.9315 0.653298 15.751V2.63773C0.653298 2.27976 0.944875 1.98835 1.30276 1.98835H2.07489V20.3523C2.07489 20.5328 2.22128 20.679 2.40153 20.679H15.2499C15.4304 20.679 15.5766 20.5328 15.5766 20.3523V1.98835H16.3487C16.7068 1.98835 16.9981 2.27976 16.9981 2.63773V21.2863C16.9981 21.6445 16.7068 21.9359 16.3487 21.9359H1.30276C0.944875 21.9359 0.653298 21.6445 0.653298 21.2863V17.2907C0.653298 17.1104 0.5069 16.964 0.326649 16.964C0.146224 16.964 0 17.1104 0 17.2907V21.2863C0 22.0048 0.584374 22.5892 1.30276 22.5892H16.3487C17.0671 22.5892 17.6514 22.0048 17.6514 21.2863V2.63773C17.6514 1.9196 17.0671 1.33506 16.3487 1.33506ZM4.74121 1.32066C4.74121 1.11205 4.91082 0.942448 5.11942 0.942448H12.532C12.7406 0.942448 12.9102 1.11205 12.9102 1.32066V2.73038C12.9102 2.93899 12.7406 3.10859 12.532 3.10859H10.6904C10.5099 3.10859 10.3638 3.2549 10.3638 3.43524C10.3638 4.08269 9.83699 4.60931 9.18963 4.60931H8.46182C7.81445 4.60931 7.28775 4.08269 7.28775 3.43524C7.28775 3.2549 7.14152 3.10859 6.9611 3.10859H5.11942C4.91082 3.10859 4.74121 2.93899 4.74121 2.73038V1.32066Z" fill="#424D55"/>
<path d="M12.9867 9.22712H11.2595L10.1555 6.2126C10.0459 5.91291 9.61125 5.93323 9.53229 6.24453L8.34653 10.9133L7.20178 7.58306C7.11026 7.31687 6.74592 7.2838 6.60798 7.52949L5.6556 9.2273H4.66466C4.48406 9.2273 4.33801 9.37343 4.33801 9.55394C4.33801 9.73428 4.48406 9.88059 4.66466 9.88059H5.84693C5.96515 9.88059 6.07403 9.81673 6.13197 9.71369L6.82095 8.48501L8.08462 12.161C8.18984 12.4672 8.63061 12.4491 8.71017 12.1353L9.90553 7.42942L10.7245 9.66614C10.7715 9.79483 10.894 9.88042 11.0313 9.88042H12.9866C13.1671 9.88042 13.3133 9.73428 13.3133 9.55377C13.3133 9.37343 13.1671 9.22712 12.9867 9.22712V9.22712Z" fill="#424D55"/>
<path d="M12.9867 14.6138H4.66466C4.48424 14.6138 4.33801 14.7599 4.33801 14.9404C4.33801 15.1208 4.48424 15.2671 4.66466 15.2671H12.9867C13.1671 15.2671 13.3134 15.1208 13.3134 14.9404C13.3134 14.7599 13.1671 14.6138 12.9867 14.6138Z" fill="#424D55"/>
<path d="M12.9867 17.4922H4.66466C4.48424 17.4922 4.33801 17.6385 4.33801 17.8188C4.33801 17.9993 4.48424 18.1455 4.66466 18.1455H12.9867C13.1671 18.1455 13.3134 17.9993 13.3134 17.8188C13.3134 17.6385 13.1671 17.4922 12.9867 17.4922Z" fill="#424D55"/>
</svg>
