<svg width="72" height="28" viewBox="0 0 72 28" fill="none" xmlns="http://www.w3.org/2000/svg">
<path d="M40.0391 19.168C39.4231 19.168 38.8258 19.0513 38.2471 18.818C37.6778 18.5847 37.1738 18.2533 36.7351 17.824L37.6871 16.718C38.0138 17.026 38.3871 17.278 38.8071 17.474C39.2271 17.6607 39.6471 17.754 40.0671 17.754C40.5898 17.754 40.9865 17.6467 41.2571 17.432C41.5278 17.2173 41.6631 16.9327 41.6631 16.578C41.6631 16.3913 41.6258 16.2327 41.5511 16.102C41.4858 15.9713 41.3878 15.8593 41.2571 15.766C41.1358 15.6633 40.9865 15.57 40.8091 15.486C40.6411 15.402 40.4545 15.318 40.2491 15.234L38.9891 14.688C38.7651 14.5947 38.5411 14.478 38.3171 14.338C38.1025 14.198 37.9065 14.03 37.7291 13.834C37.5518 13.638 37.4071 13.4093 37.2951 13.148C37.1925 12.8867 37.1411 12.588 37.1411 12.252C37.1411 11.888 37.2158 11.552 37.3651 11.244C37.5238 10.9267 37.7385 10.6513 38.0091 10.418C38.2798 10.1847 38.6018 10.0027 38.9751 9.872C39.3578 9.74133 39.7731 9.676 40.2211 9.676C40.7531 9.676 41.2665 9.78333 41.7611 9.998C42.2558 10.2033 42.6805 10.4833 43.0351 10.838L42.2091 11.874C41.9105 11.6313 41.6025 11.44 41.2851 11.3C40.9678 11.16 40.6131 11.09 40.2211 11.09C39.7825 11.09 39.4325 11.188 39.1711 11.384C38.9098 11.5707 38.7791 11.832 38.7791 12.168C38.7791 12.3453 38.8165 12.4993 38.8911 12.63C38.9751 12.7513 39.0825 12.8633 39.2131 12.966C39.3531 13.0593 39.5118 13.148 39.6891 13.232C39.8665 13.3067 40.0485 13.3813 40.2351 13.456L41.4811 13.974C41.7518 14.086 41.9991 14.2167 42.2231 14.366C42.4471 14.5153 42.6385 14.688 42.7971 14.884C42.9651 15.08 43.0958 15.3087 43.1891 15.57C43.2825 15.822 43.3291 16.116 43.3291 16.452C43.3291 16.8253 43.2545 17.1753 43.1051 17.502C42.9558 17.8287 42.7365 18.118 42.4471 18.37C42.1671 18.6127 41.8218 18.8087 41.4111 18.958C41.0098 19.098 40.5525 19.168 40.0391 19.168ZM47.668 19.168C47.2387 19.168 46.828 19.0887 46.436 18.93C46.044 18.7713 45.694 18.538 45.386 18.23C45.0874 17.922 44.8494 17.544 44.672 17.096C44.4947 16.648 44.406 16.1393 44.406 15.57C44.406 15.0007 44.4947 14.492 44.672 14.044C44.8494 13.596 45.0874 13.218 45.386 12.91C45.694 12.602 46.044 12.3687 46.436 12.21C46.828 12.042 47.2387 11.958 47.668 11.958C48.0974 11.958 48.508 12.042 48.9 12.21C49.3014 12.3687 49.6514 12.602 49.95 12.91C50.2487 13.218 50.4867 13.596 50.664 14.044C50.8507 14.492 50.944 15.0007 50.944 15.57C50.944 16.1393 50.8507 16.648 50.664 17.096C50.4867 17.544 50.2487 17.922 49.95 18.23C49.6514 18.538 49.3014 18.7713 48.9 18.93C48.508 19.0887 48.0974 19.168 47.668 19.168ZM47.668 17.852C48.172 17.852 48.5687 17.6467 48.858 17.236C49.1474 16.816 49.292 16.2607 49.292 15.57C49.292 14.87 49.1474 14.3147 48.858 13.904C48.5687 13.484 48.172 13.274 47.668 13.274C47.164 13.274 46.7674 13.484 46.478 13.904C46.198 14.3147 46.058 14.87 46.058 15.57C46.058 16.2607 46.198 16.816 46.478 17.236C46.7674 17.6467 47.164 17.852 47.668 17.852ZM52.5376 19V12.126H53.8676L53.9796 13.344H54.0356C54.2783 12.896 54.5723 12.5553 54.9176 12.322C55.263 12.0793 55.6176 11.958 55.9816 11.958C56.3083 11.958 56.5696 12.0047 56.7656 12.098L56.4856 13.498C56.3643 13.4607 56.2523 13.4327 56.1496 13.414C56.047 13.3953 55.921 13.386 55.7716 13.386C55.501 13.386 55.2163 13.4933 54.9176 13.708C54.619 13.9133 54.3623 14.2773 54.1476 14.8V19H52.5376ZM60.1823 19.168C59.7809 19.168 59.4403 19.1073 59.1603 18.986C58.8896 18.8647 58.6656 18.6967 58.4883 18.482C58.3203 18.258 58.1943 17.9967 58.1103 17.698C58.0356 17.39 57.9983 17.0493 57.9983 16.676V13.4H57.0183V12.196L58.0823 12.126L58.2783 10.25H59.6223V12.126H61.3723V13.4H59.6223V16.676C59.6223 17.4787 59.9443 17.88 60.5883 17.88C60.7096 17.88 60.8309 17.866 60.9523 17.838C61.0829 17.81 61.1996 17.7727 61.3023 17.726L61.5823 18.916C61.3956 18.9813 61.1809 19.0373 60.9383 19.084C60.7049 19.14 60.4529 19.168 60.1823 19.168Z" fill="#424D55"/>
<path d="M19.8334 16.5L23.1667 19.8333L26.5 16.5" stroke="#96A2AA" stroke-width="2" stroke-linecap="round" stroke-linejoin="round"/>
<path d="M23.1667 10.6667V19.8334" stroke="#96A2AA" stroke-width="2" stroke-linecap="round" stroke-linejoin="round"/>
<path d="M18.1666 11.5L14.8333 8.16667L11.5 11.5" stroke="#96A2AA" stroke-width="2" stroke-linecap="round" stroke-linejoin="round"/>
<path d="M14.8333 17.3333L14.8333 8.16665" stroke="#96A2AA" stroke-width="2" stroke-linecap="round" stroke-linejoin="round"/>
</svg>
