<svg width="22" height="19" viewBox="0 0 22 19" fill="none" xmlns="http://www.w3.org/2000/svg">
<path d="M10.9999 15.6286C11.5616 15.6286 12.017 15.1732 12.017 14.6115C12.017 14.0497 11.5616 13.5944 10.9999 13.5944C10.4381 13.5944 9.98277 14.0497 9.98277 14.6115C9.98277 15.1732 10.4381 15.6286 10.9999 15.6286Z" fill="#FF835C"/>
<path d="M10.8632 11.9721C11.1724 11.9721 11.4233 11.7212 11.4233 11.4121V6.09135C11.4233 5.78219 11.1724 5.53128 10.8632 5.53128C10.554 5.53128 10.3031 5.78219 10.3031 6.09135V11.4121C10.3031 11.7212 10.554 11.9721 10.8632 11.9721Z" fill="#FF835C"/>
<path d="M13.0413 1.66538L13.0158 1.6259C12.4972 0.82667 11.9612 0 10.9999 0C9.99789 0 9.47366 0.838431 8.96679 1.6497C8.96427 1.65362 8.94859 1.67882 8.94607 1.68302L0.0778503 16.7101C0.0268836 16.7963 0 16.8414 0 16.9414C0 18.0324 0.877917 18.8664 1.9569 18.8664H20.0431C21.1224 18.8664 22 18.0322 22 16.9414C22 16.8414 21.9731 16.7695 21.9224 16.6835L13.0413 1.66538ZM20.0431 17.7462H1.9569C1.54777 17.7462 1.19604 17.4799 1.13079 17.0758L9.91668 2.21677C10.3519 1.52032 10.6369 1.10699 10.9999 1.10699C11.353 1.10699 11.6879 1.63066 12.076 2.22882L20.8689 17.0727C20.804 17.4766 20.4522 17.7462 20.0431 17.7462Z" fill="#FF835C"/>
</svg>
